<!-- Lucide-geometry icon sprite, extracted verbatim from v4.html.
     Injected once per page by lenz-core; reference with <use href="#i-name"/>.
     Also registered as an Elementor icon library so these stay pickable in widgets. -->
<svg xmlns="http://www.w3.org/2000/svg" width="0" height="0" style="position:absolute" aria-hidden="true" focusable="false">
  <symbol id="i-phone" viewBox="0 0 24 24" fill="none" stroke="currentColor" stroke-width="2" stroke-linecap="round" stroke-linejoin="round"><path d="M22 16.92v3a2 2 0 0 1-2.18 2 19.79 19.79 0 0 1-8.63-3.07 19.5 19.5 0 0 1-6-6 19.79 19.79 0 0 1-3.07-8.67A2 2 0 0 1 4.11 2h3a2 2 0 0 1 2 1.72c.13.96.36 1.9.7 2.81a2 2 0 0 1-.45 2.11L8.09 9.91a16 16 0 0 0 6 6l1.27-1.27a2 2 0 0 1 2.11-.45c.9.34 1.85.57 2.81.7A2 2 0 0 1 22 16.92z"/></symbol>
  <symbol id="i-star" viewBox="0 0 24 24"><path d="M12 2l2.9 6.26L21.6 9.27l-4.8 4.68 1.13 6.6L12 17.5l-5.93 3.05L7.2 13.95 2.4 9.27l6.7-1.01L12 2z"/></symbol>
  <symbol id="i-check" viewBox="0 0 24 24" fill="none" stroke="currentColor" stroke-width="2.5" stroke-linecap="round" stroke-linejoin="round"><path d="M20 6L9 17l-5-5"/></symbol>
  <symbol id="i-shield" viewBox="0 0 24 24" fill="none" stroke="currentColor" stroke-width="2" stroke-linecap="round" stroke-linejoin="round"><path d="M12 22s8-4 8-10V5l-8-3-8 3v7c0 6 8 10 8 10z"/></symbol>
  <symbol id="i-clock" viewBox="0 0 24 24" fill="none" stroke="currentColor" stroke-width="2" stroke-linecap="round" stroke-linejoin="round"><circle cx="12" cy="12" r="9"/><path d="M12 7v5l3 2"/></symbol>
  <symbol id="i-snow" viewBox="0 0 24 24" fill="none" stroke="currentColor" stroke-width="2" stroke-linecap="round" stroke-linejoin="round"><path d="M12 2v20M2 12h20M5 5l14 14M19 5L5 19M12 5l-2 2 2 2 2-2-2-2zM12 15l-2 2 2 2 2-2-2-2z"/></symbol>
  <symbol id="i-flame" viewBox="0 0 24 24" fill="none" stroke="currentColor" stroke-width="2" stroke-linecap="round" stroke-linejoin="round"><path d="M12 2s5 4.5 5 9a5 5 0 0 1-10 0c0-1.5.6-2.8 1.3-3.8C8 9.5 9 11 10 11c0-2 .5-4 2-9z"/></symbol>
  <symbol id="i-wrench" viewBox="0 0 24 24" fill="none" stroke="currentColor" stroke-width="2" stroke-linecap="round" stroke-linejoin="round"><path d="M14.7 6.3a4 4 0 0 0-5.3 5.3L3 18l3 3 6.4-6.4a4 4 0 0 0 5.3-5.3l-2.6 2.6-2.1-2.1 2.7-2.5z"/></symbol>
  <symbol id="i-wind" viewBox="0 0 24 24" fill="none" stroke="currentColor" stroke-width="2" stroke-linecap="round" stroke-linejoin="round"><path d="M3 8h10a3 3 0 1 0-3-3M3 16h13a3 3 0 1 1-3 3M3 12h17"/></symbol>
  <symbol id="i-droplet" viewBox="0 0 24 24" fill="none" stroke="currentColor" stroke-width="2" stroke-linecap="round" stroke-linejoin="round"><path d="M12 2.5S5 9 5 14a7 7 0 0 0 14 0c0-5-7-11.5-7-11.5z"/></symbol>
  <symbol id="i-air" viewBox="0 0 24 24" fill="none" stroke="currentColor" stroke-width="2" stroke-linecap="round" stroke-linejoin="round"><path d="M4 6h16v8H4zM7 18v2M12 18v2M17 18v2M7 9.5h.01M11 9.5h6"/></symbol>
  <symbol id="i-heat" viewBox="0 0 24 24" fill="none" stroke="currentColor" stroke-width="2" stroke-linecap="round" stroke-linejoin="round"><path d="M8 3v3M12 3v3M16 3v3M5 9h14l-1 11H6L5 9z"/></symbol>
  <symbol id="i-calendar" viewBox="0 0 24 24" fill="none" stroke="currentColor" stroke-width="2" stroke-linecap="round" stroke-linejoin="round"><rect x="3" y="4" width="18" height="18" rx="2"/><path d="M16 2v4M8 2v4M3 10h18"/></symbol>
  <symbol id="i-card" viewBox="0 0 24 24" fill="none" stroke="currentColor" stroke-width="2" stroke-linecap="round" stroke-linejoin="round"><rect x="2" y="5" width="20" height="14" rx="2"/><path d="M2 10h20"/></symbol>
  <symbol id="i-pin" viewBox="0 0 24 24" fill="none" stroke="currentColor" stroke-width="2" stroke-linecap="round" stroke-linejoin="round"><path d="M20 10c0 6-8 12-8 12s-8-6-8-12a8 8 0 0 1 16 0z"/><circle cx="12" cy="10" r="3"/></symbol>
  <symbol id="i-info" viewBox="0 0 24 24" fill="none" stroke="currentColor" stroke-width="2" stroke-linecap="round" stroke-linejoin="round"><circle cx="12" cy="12" r="9"/><path d="M12 16v-4M12 8h.01"/></symbol>
  <symbol id="i-mail" viewBox="0 0 24 24" fill="none" stroke="currentColor" stroke-width="2" stroke-linecap="round" stroke-linejoin="round"><rect x="2" y="4" width="20" height="16" rx="2"/><path d="M2 6l10 7 10-7"/></symbol>
  <symbol id="i-tv" viewBox="0 0 24 24" fill="none" stroke="currentColor" stroke-width="2" stroke-linecap="round" stroke-linejoin="round"><rect x="2" y="7" width="20" height="13" rx="2"/><path d="M8 3l4 4 4-4"/></symbol>
  <symbol id="i-award" viewBox="0 0 24 24" fill="none" stroke="currentColor" stroke-width="2" stroke-linecap="round" stroke-linejoin="round"><circle cx="12" cy="9" r="6"/><path d="M9 14.5L8 22l4-2 4 2-1-7.5"/></symbol>
  <symbol id="i-plus" viewBox="0 0 24 24" fill="none" stroke="currentColor" stroke-width="2.5" stroke-linecap="round" stroke-linejoin="round"><path d="M12 5v14M5 12h14"/></symbol>
  <symbol id="i-chevron" viewBox="0 0 24 24" fill="none" stroke="currentColor" stroke-width="2.5" stroke-linecap="round" stroke-linejoin="round"><path d="M6 9l6 6 6-6"/></symbol>
  <symbol id="i-arrow" viewBox="0 0 24 24" fill="none" stroke="currentColor" stroke-width="2.5" stroke-linecap="round" stroke-linejoin="round"><path d="M5 12h14M13 6l6 6-6 6"/></symbol>
  <symbol id="i-menu" viewBox="0 0 24 24" fill="none" stroke="currentColor" stroke-width="2" stroke-linecap="round" stroke-linejoin="round"><path d="M3 6h18M3 12h18M3 18h18"/></symbol>
  <symbol id="i-close" viewBox="0 0 24 24" fill="none" stroke="currentColor" stroke-width="2" stroke-linecap="round" stroke-linejoin="round"><path d="M6 6l12 12M18 6L6 18"/></symbol>
</svg>
